# xmcd CD database file
#
# Track frame offsets:
#	150
#	20313
#	32668
#	48014
#	63687
#	88194
#	110848
#	137815
#	159426
#	182178
#	217192
#	254660
#	272847
#
# Disc length: 3987 seconds
#
# Revision: 0
# Processed by: cddbd v1.5.2PL0 Copyright (c) Steve Scherf et al.
# Submitted via: CDex 1.70beta2
#
DISCID=c40f910d
DTITLE=Jimmy Rowles - Trio '77/'78
DYEAR=1977
DGENRE=Jazz
TTITLE0=Jeru
TTITLE1=Venus De Milo
TTITLE2=Godchild
TTITLE3=Darn That Dream
TTITLE4=Stars and Stripes Forever
TTITLE5=Here's That Rainy Day
TTITLE6=We Could Make Such Beautiful Music Together
TTITLE7=Medley:How Do You Do Miss Josephine/Three on a Match
TTITLE8=Shake It, But Don't Break It
TTITLE9=I Can't Get Started
TTITLE10=In The Still Of The Night
TTITLE11=Georgia on My Mind
TTITLE12='Round Midnight
EXTD=YEAR: 1977
EXTT0=
EXTT1=
EXTT2=
EXTT3=
EXTT4=
EXTT5=
EXTT6=
EXTT7=
EXTT8=
EXTT9=
EXTT10=
EXTT11=
EXTT12=
PLAYORDER=
